<?xml version="1.0" standalone="no"?>
<!DOCTYPE svg PUBLIC "-//W3C//DTD SVG 20010904//EN"
 "http://www.w3.org/TR/2001/REC-SVG-20010904/DTD/svg10.dtd">
<svg version="1.0" xmlns="http://www.w3.org/2000/svg"
 width="2000.000000pt" height="2000.000000pt" viewBox="0 0 2000.000000 2000.000000"
 preserveAspectRatio="xMidYMid meet">
<metadata>
Created by potrace 1.14, written by Peter Selinger 2001-2017
</metadata>
<g transform="translate(0.000000,2000.000000) scale(0.100000,-0.100000)"
fill="#000000" stroke="none">
<path d="M9939 19951 c-20 -7 -265 -143 -414 -232 -16 -10 -68 -40 -115 -67
-47 -27 -130 -75 -185 -106 -55 -32 -113 -66 -130 -76 -16 -9 -138 -79 -270
-155 -132 -76 -377 -218 -545 -315 -168 -97 -366 -212 -440 -254 -74 -43 -142
-82 -150 -87 -8 -5 -40 -23 -70 -40 -381 -220 -484 -279 -491 -279 -4 0 -9 -3
-11 -7 -1 -5 -24 -19 -49 -33 -41 -22 -881 -508 -919 -531 -8 -5 -69 -40 -135
-77 -66 -38 -208 -119 -315 -182 -107 -62 -211 -121 -230 -132 -19 -11 -123
-71 -230 -133 -107 -62 -294 -169 -415 -239 -121 -69 -227 -130 -235 -136 -8
-5 -51 -30 -95 -55 -44 -25 -87 -50 -95 -55 -8 -5 -128 -75 -266 -154 -138
-80 -266 -154 -285 -165 -19 -12 -41 -24 -49 -28 -8 -4 -46 -26 -85 -48 -38
-23 -90 -53 -115 -67 -25 -14 -112 -64 -193 -112 -82 -47 -150 -86 -153 -86
-2 0 -36 -20 -76 -44 -40 -25 -246 -144 -458 -265 -212 -122 -392 -225 -400
-231 -24 -15 -375 -218 -605 -350 -16 -9 -55 -31 -85 -49 -30 -17 -62 -36 -70
-41 -8 -5 -44 -25 -80 -45 -36 -20 -77 -49 -92 -63 l-28 -26 0 -4992 c0 -4983
0 -4991 20 -5017 19 -24 151 -107 171 -107 5 0 9 -4 9 -9 0 -5 6 -11 13 -13
11 -2 74 -38 325 -183 25 -14 134 -78 154 -90 9 -5 35 -20 57 -32 44 -24 414
-238 804 -465 131 -76 240 -138 243 -138 2 0 32 -17 66 -38 35 -21 83 -50 108
-64 124 -69 458 -263 482 -279 15 -11 29 -19 32 -19 3 0 69 -38 148 -84 79
-46 175 -101 213 -123 39 -22 142 -82 230 -133 88 -51 180 -104 205 -118 25
-14 62 -36 82 -49 21 -12 40 -23 43 -23 3 0 31 -16 61 -35 30 -19 56 -35 58
-35 2 0 64 -36 139 -79 74 -43 154 -90 178 -103 24 -14 116 -67 204 -118 172
-100 323 -187 395 -228 25 -14 62 -36 83 -49 21 -13 48 -28 60 -34 12 -5 36
-18 52 -28 31 -19 182 -107 250 -146 22 -12 143 -82 268 -154 126 -73 243
-140 260 -150 18 -10 187 -108 377 -218 190 -110 359 -207 375 -217 17 -9 37
-20 45 -26 47 -29 170 -100 174 -100 2 0 48 -26 103 -58 83 -50 484 -282 593
-344 19 -11 64 -37 100 -58 36 -21 83 -48 105 -61 119 -68 150 -86 181 -104
18 -11 57 -33 86 -49 29 -16 65 -37 80 -47 14 -11 28 -19 31 -19 3 0 66 -36
141 -80 76 -44 141 -80 146 -80 6 0 10 -4 10 -8 0 -4 12 -13 28 -19 15 -7 34
-17 42 -23 8 -5 83 -49 165 -96 83 -48 202 -116 265 -153 104 -59 120 -66 170
-66 43 0 67 7 110 32 30 17 71 40 90 51 40 23 746 431 925 535 66 38 180 104
253 146 73 42 147 84 165 95 94 55 488 282 527 304 42 24 715 412 1090 630 91
52 181 104 200 115 42 23 199 114 220 127 46 27 271 156 305 174 22 12 42 23
45 26 3 3 16 11 30 19 50 29 402 233 709 410 172 99 315 181 317 181 2 0 27
15 56 33 29 19 60 37 68 40 8 4 31 17 50 28 19 12 305 177 635 366 330 190
611 353 625 363 15 10 48 30 75 44 28 15 65 36 84 47 34 20 263 153 336 194
22 13 107 62 188 109 82 47 152 86 158 86 5 0 9 4 9 8 0 5 12 14 28 21 58 27
1278 735 1300 755 13 11 30 33 38 48 21 41 21 9915 0 9956 -8 15 -25 37 -38
48 -18 17 -873 515 -1112 649 -28 15 -73 41 -100 58 -52 30 -332 193 -396 229
-39 22 -311 179 -460 266 -52 30 -109 63 -127 73 -43 24 -420 242 -463 267
-19 12 -46 27 -60 35 -14 7 -41 23 -60 34 -19 11 -62 36 -95 55 -33 19 -136
79 -230 133 -150 87 -548 317 -630 364 -16 10 -59 34 -95 55 -36 20 -72 41
-80 46 -8 6 -82 48 -165 95 -82 47 -157 89 -165 95 -16 10 -326 189 -400 231
-119 68 -241 139 -278 163 -23 14 -43 26 -46 26 -2 0 -68 38 -147 83 -79 46
-164 95 -189 109 -25 14 -85 49 -135 78 -49 29 -104 61 -122 71 -17 10 -50 29
-72 43 -22 15 -43 26 -46 26 -4 0 -267 151 -365 209 -21 13 -495 287 -583 337
-40 23 -214 123 -387 224 -173 100 -331 191 -350 202 -46 26 -223 128 -258
149 -15 9 -47 27 -72 41 -25 14 -70 40 -100 58 -30 18 -75 44 -100 58 -25 14
-58 33 -75 43 -16 10 -52 31 -80 46 -27 16 -149 86 -270 156 -227 131 -273
148 -336 128z"/>
</g>
</svg>
